<?xml version="1.0" encoding="UTF-8" standalone="no"?>
<!DOCTYPE svg PUBLIC "-//W3C//DTD SVG 1.1//EN" "http://www.w3.org/Graphics/SVG/1.1/DTD/svg11.dtd">
<svg xmlns="http://www.w3.org/2000/svg" version="1.1" viewBox="0.00 0.00 392.00 279.00">
<g stroke-width="2.00" fill="none" stroke-linecap="butt">
<path stroke="#fe8080" vector-effect="non-scaling-stroke" d="
  M 180.49 67.05
  L 178.62 69.87
  A 0.33 0.33 0.0 0 0 179.04 70.35
  Q 181.28 69.29 181.93 66.84
  A 0.53 0.51 -14.4 0 1 182.10 66.57
  L 188.35 61.33
  Q 188.92 60.85 188.24 60.55
  L 187.67 60.31
  Q 187.09 60.05 187.44 59.52
  Q 188.79 57.48 191.25 57.53
  Q 191.85 57.54 192.19 57.05
  L 195.73 51.93
  Q 197.43 49.49 199.08 51.95
  Q 200.31 53.78 202.66 55.36
  C 205.82 57.47 208.07 60.09 211.25 62.08
  A 0.76 0.75 24.8 0 1 211.57 62.93
  C 210.92 65.17 215.23 67.78 217.10 68.50
  Q 217.62 68.70 217.92 69.16
  Q 219.54 71.70 222.20 73.23
  Q 222.60 73.46 222.35 73.08
  Q 220.12 69.73 216.83 67.53
  C 214.23 65.80 212.98 62.77 210.56 60.59
  Q 203.97 54.63 197.91 48.09
  Q 197.56 47.71 197.17 48.06
  Q 193.64 51.25 190.23 54.59
  C 187.96 56.82 185.94 60.05 183.38 62.45
  Q 178.37 67.16 177.78 67.80
  Q 161.39 85.65 143.39 101.90
  Q 142.63 102.58 142.63 104.20
  Q 142.63 104.70 142.16 104.87
  C 139.16 105.97 136.09 110.17 133.72 112.57
  A 0.98 0.97 43.6 0 0 133.76 113.98
  Q 138.21 117.96 142.14 122.59
  Q 146.48 127.71 149.62 130.66
  Q 166.11 146.18 181.62 162.69
  C 183.39 164.58 185.51 164.97 187.17 167.03
  Q 191.69 172.65 197.16 177.77
  Q 197.54 178.12 197.91 177.76
  L 259.80 116.04
  A 0.47 0.46 11.8 0 0 259.30 115.28
  Q 256.42 116.39 254.62 118.11
  Q 242.02 130.21 229.60 142.52
  C 226.82 145.28 223.36 149.75 219.60 152.87
  C 217.75 154.40 216.93 156.58 214.87 158.00
  C 212.41 159.68 211.74 160.72 210.33 163.03
  A 1.85 1.83 -87.2 0 1 209.61 163.69
  Q 206.12 165.48 203.92 168.62
  C 202.09 171.23 200.03 172.16 197.79 174.18
  Q 197.38 174.55 197.06 174.10
  C 194.75 170.84 191.21 168.55 188.91 166.05
  Q 177.86 154.04 166.11 142.74
  C 164.35 141.04 162.28 138.45 159.97 136.57
  Q 156.59 133.81 155.16 132.26
  Q 146.10 122.49 136.15 113.63
  Q 135.74 113.27 136.16 112.92
  Q 139.30 110.27 141.50 106.73
  A 1.66 1.59 2.5 0 1 142.23 106.09
  C 146.14 104.37 147.23 100.91 150.09 98.38
  Q 153.79 95.11 153.84 95.05
  Q 162.84 86.01 171.93 77.06
  C 173.71 75.31 175.46 72.75 177.77 70.89
  Q 178.18 70.56 178.21 70.04
  Q 178.34 67.88 180.10 66.67
  Q 181.27 65.87 180.49 67.05"
/>
<path stroke="#fe8080" vector-effect="non-scaling-stroke" d="
  M 227.11 77.53
  L 223.95 76.04
  A 0.24 0.24 0.0 0 0 223.69 76.44
  L 226.27 78.60
  Q 226.74 78.99 227.07 78.47
  L 227.29 78.13
  Q 227.54 77.73 227.11 77.53"
/>
<path stroke="#fe8080" vector-effect="non-scaling-stroke" d="
  M 230.8025 81.6053
  A 0.84 0.45 46.1 0 0 230.5442 80.6880
  A 0.84 0.45 46.1 0 0 229.6375 80.3947
  A 0.84 0.45 46.1 0 0 229.8958 81.3120
  A 0.84 0.45 46.1 0 0 230.8025 81.6053"
/>
<path stroke="#fe8080" vector-effect="non-scaling-stroke" d="
  M 203.18 88.49
  Q 208.21 89.26 209.02 93.81
  Q 209.17 94.64 208.67 97.07
  C 208.09 99.95 209.98 104.11 213.55 101.36
  Q 213.92 101.07 214.00 100.61
  C 214.83 95.51 213.83 88.41 208.74 85.73
  Q 203.72 83.09 197.85 83.80
  A 1.16 1.16 0.0 0 0 197.14 84.16
  Q 196.20 85.18 194.88 85.57
  Q 194.40 85.71 194.13 86.13
  C 189.50 93.41 190.95 98.82 193.56 107.08
  Q 194.43 109.85 197.43 117.25
  C 199.13 121.46 205.47 135.07 196.10 134.54
  Q 190.40 134.22 187.23 129.83
  C 185.48 127.39 185.00 123.23 183.25 120.13
  A 0.57 0.57 0.0 0 0 182.20 120.54
  Q 182.63 122.35 181.64 123.96
  A 1.44 1.40 60.1 0 0 181.42 124.82
  Q 182.27 137.77 193.59 141.67
  C 197.25 142.94 201.34 142.50 203.97 139.70
  C 207.75 135.68 206.47 127.04 204.66 122.26
  Q 200.52 111.35 197.87 102.78
  C 195.95 96.54 195.80 91.47 202.28 88.61
  Q 202.71 88.42 203.18 88.49"
/>
<path stroke="#fe8080" vector-effect="non-scaling-stroke" d="
  M 58.90 193.35
  C 62.78 193.48 64.31 194.79 66.68 196.25
  Q 67.13 196.52 67.29 196.02
  C 68.88 191.05 56.26 191.68 54.18 192.38
  C 47.06 194.78 46.11 204.09 52.31 208.19
  Q 57.58 211.67 62.81 215.15
  C 69.30 219.48 67.41 228.20 59.75 229.43
  Q 53.52 230.43 48.51 226.54
  Q 48.03 226.17 48.02 226.78
  L 48.00 228.18
  A 0.66 0.65 17.1 0 0 48.31 228.75
  Q 55.57 233.19 62.66 230.45
  C 67.47 228.59 69.99 223.03 67.91 218.07
  C 66.36 214.38 59.47 210.62 53.19 206.58
  Q 49.82 204.42 49.97 200.63
  C 50.16 195.79 54.34 193.20 58.90 193.35"
/>
<path stroke="#fe8080" vector-effect="non-scaling-stroke" d="
  M 155.78 211.52
  A 19.98 19.98 0.0 0 0 135.80 191.54
  A 19.98 19.98 0.0 0 0 115.82 211.52
  A 19.98 19.98 0.0 0 0 135.80 231.50
  A 19.98 19.98 0.0 0 0 155.78 211.52"
/>
<path stroke="#fe8080" vector-effect="non-scaling-stroke" d="
  M 257.39 211.52
  A 19.98 19.98 0.0 0 0 237.41 191.54
  A 19.98 19.98 0.0 0 0 217.43 211.52
  A 19.98 19.98 0.0 0 0 237.41 231.50
  A 19.98 19.98 0.0 0 0 257.39 211.52"
/>
<path stroke="#fe8080" vector-effect="non-scaling-stroke" d="
  M 299.57 210.34
  C 300.67 237.89 262.65 234.56 265.22 209.49
  C 266.71 195.05 281.79 189.68 293.80 196.18
  Q 294.54 196.58 294.48 195.75
  L 294.43 194.90
  A 1.00 0.99 -79.3 0 0 293.87 194.07
  C 278.23 186.52 260.30 197.48 263.72 215.60
  C 268.32 240.00 305.39 234.88 301.14 208.80
  Q 301.06 208.30 300.55 208.29
  C 294.94 208.14 288.78 208.71 283.27 208.10
  Q 282.06 207.96 281.83 208.96
  A 0.67 0.67 0.0 0 0 282.48 209.78
  L 298.98 209.77
  A 0.59 0.59 0.0 0 1 299.57 210.34"
/>
<path stroke="#fe8080" vector-effect="non-scaling-stroke" d="
  M 79.00 210.22
  L 79.00 192.84
  A 0.58 0.58 0.0 0 0 78.58 192.28
  L 78.05 192.11
  A 0.63 0.62 -81.7 0 0 77.25 192.71
  L 77.25 230.15
  Q 77.25 230.80 77.90 230.78
  L 78.37 230.77
  Q 78.99 230.75 78.99 230.13
  L 79.00 212.73
  Q 79.00 212.21 79.52 212.21
  L 104.82 212.20
  Q 105.44 212.20 105.44 212.82
  L 105.45 230.34
  Q 105.45 231.00 106.10 230.90
  L 106.65 230.81
  Q 107.20 230.73 107.20 230.17
  Q 107.20 211.70 107.20 193.22
  Q 107.20 192.64 106.92 192.38
  Q 106.54 192.02 105.92 192.16
  A 0.61 0.61 0.0 0 0 105.45 192.75
  L 105.44 210.25
  A 0.44 0.44 0.0 0 1 105.00 210.69
  L 79.47 210.69
  Q 79.00 210.69 79.00 210.22"
/>
<path stroke="#fe8080" vector-effect="non-scaling-stroke" d="
  M 196.08 229.26
  A 0.32 0.32 0.0 0 1 195.76 228.94
  L 195.74 192.14
  A 0.32 0.32 0.0 0 0 195.26 191.86
  L 194.15 192.51
  A 0.32 0.32 0.0 0 0 193.99 192.78
  L 193.94 230.43
  A 0.32 0.32 0.0 0 0 194.26 230.75
  L 213.28 230.81
  A 0.32 0.32 0.0 0 0 213.61 230.51
  L 213.65 229.55
  A 0.32 0.32 0.0 0 0 213.33 229.21
  L 196.08 229.26"
/>
<path stroke="#fe8080" vector-effect="non-scaling-stroke" d="
  M 311.13 192.79
  A 0.67 0.67 0.0 0 0 310.46 192.12
  L 310.12 192.12
  A 0.67 0.67 0.0 0 0 309.45 192.79
  L 309.45 230.23
  A 0.67 0.67 0.0 0 0 310.12 230.90
  L 310.46 230.90
  A 0.67 0.67 0.0 0 0 311.13 230.23
  L 311.13 192.79"
/>
<path stroke="#fe8080" vector-effect="non-scaling-stroke" d="
  M 333.05 213.28
  Q 339.06 221.75 344.90 230.33
  Q 345.63 231.41 346.92 230.77
  Q 347.37 230.55 347.08 230.13
  L 334.21 211.47
  Q 333.93 211.07 334.21 210.67
  L 346.46 192.94
  A 0.53 0.53 0.0 0 0 345.94 192.11
  L 345.07 192.25
  Q 344.60 192.32 344.33 192.71
  L 333.02 208.98
  A 0.43 0.43 0.0 0 1 332.31 208.98
  L 320.92 192.64
  Q 320.64 192.22 320.13 192.22
  L 319.25 192.21
  Q 318.33 192.20 318.85 192.96
  L 331.10 210.65
  Q 331.40 211.08 331.10 211.51
  L 318.32 230.02
  A 0.55 0.54 28.7 0 0 318.56 230.83
  C 319.48 231.20 320.38 230.52 320.91 229.71
  Q 326.36 221.31 332.33 213.27
  Q 332.70 212.77 333.05 213.28"
/>
<path stroke="#fe8080" vector-effect="non-scaling-stroke" d="
  M 166.79 212.15
  Q 177.09 212.34 182.25 212.19
  Q 183.25 212.16 182.91 211.04
  Q 182.81 210.68 182.43 210.68
  L 166.71 210.70
  Q 166.22 210.70 166.22 210.21
  L 166.23 194.48
  Q 166.23 193.94 166.78 193.93
  Q 174.77 193.83 182.75 193.93
  Q 184.02 193.95 184.19 193.03
  A 0.70 0.70 0.0 0 0 183.50 192.20
  L 165.00 192.23
  Q 164.48 192.23 164.48 192.75
  L 164.48 230.27
  Q 164.48 230.81 165.02 230.81
  L 183.72 230.78
  A 0.51 0.51 0.0 0 0 184.22 230.15
  L 184.12 229.73
  Q 184.01 229.24 183.50 229.24
  L 166.73 229.24
  Q 166.22 229.24 166.22 228.73
  L 166.24 212.69
  Q 166.24 212.14 166.79 212.15"
/>
<path stroke="#fe8080" vector-effect="non-scaling-stroke" d="
  M 154.01 211.51
  A 18.20 18.20 0.0 0 0 135.81 193.31
  A 18.20 18.20 0.0 0 0 117.61 211.51
  A 18.20 18.20 0.0 0 0 135.81 229.71
  A 18.20 18.20 0.0 0 0 154.01 211.51"
/>
<path stroke="#fe8080" vector-effect="non-scaling-stroke" d="
  M 255.62 211.52
  A 18.21 18.21 0.0 0 0 237.41 193.31
  A 18.21 18.21 0.0 0 0 219.20 211.52
  A 18.21 18.21 0.0 0 0 237.41 229.73
  A 18.21 18.21 0.0 0 0 255.62 211.52"
/>
</g>
<path fill="#ffffff" d="
  M 0.00 0.00
  L 392.00 0.00
  L 392.00 279.00
  L 0.00 279.00
  L 0.00 0.00
  Z
  M 180.49 67.05
  L 178.62 69.87
  A 0.33 0.33 0.0 0 0 179.04 70.35
  Q 181.28 69.29 181.93 66.84
  A 0.53 0.51 -14.4 0 1 182.10 66.57
  L 188.35 61.33
  Q 188.92 60.85 188.24 60.55
  L 187.67 60.31
  Q 187.09 60.05 187.44 59.52
  Q 188.79 57.48 191.25 57.53
  Q 191.85 57.54 192.19 57.05
  L 195.73 51.93
  Q 197.43 49.49 199.08 51.95
  Q 200.31 53.78 202.66 55.36
  C 205.82 57.47 208.07 60.09 211.25 62.08
  A 0.76 0.75 24.8 0 1 211.57 62.93
  C 210.92 65.17 215.23 67.78 217.10 68.50
  Q 217.62 68.70 217.92 69.16
  Q 219.54 71.70 222.20 73.23
  Q 222.60 73.46 222.35 73.08
  Q 220.12 69.73 216.83 67.53
  C 214.23 65.80 212.98 62.77 210.56 60.59
  Q 203.97 54.63 197.91 48.09
  Q 197.56 47.71 197.17 48.06
  Q 193.64 51.25 190.23 54.59
  C 187.96 56.82 185.94 60.05 183.38 62.45
  Q 178.37 67.16 177.78 67.80
  Q 161.39 85.65 143.39 101.90
  Q 142.63 102.58 142.63 104.20
  Q 142.63 104.70 142.16 104.87
  C 139.16 105.97 136.09 110.17 133.72 112.57
  A 0.98 0.97 43.6 0 0 133.76 113.98
  Q 138.21 117.96 142.14 122.59
  Q 146.48 127.71 149.62 130.66
  Q 166.11 146.18 181.62 162.69
  C 183.39 164.58 185.51 164.97 187.17 167.03
  Q 191.69 172.65 197.16 177.77
  Q 197.54 178.12 197.91 177.76
  L 259.80 116.04
  A 0.47 0.46 11.8 0 0 259.30 115.28
  Q 256.42 116.39 254.62 118.11
  Q 242.02 130.21 229.60 142.52
  C 226.82 145.28 223.36 149.75 219.60 152.87
  C 217.75 154.40 216.93 156.58 214.87 158.00
  C 212.41 159.68 211.74 160.72 210.33 163.03
  A 1.85 1.83 -87.2 0 1 209.61 163.69
  Q 206.12 165.48 203.92 168.62
  C 202.09 171.23 200.03 172.16 197.79 174.18
  Q 197.38 174.55 197.06 174.10
  C 194.75 170.84 191.21 168.55 188.91 166.05
  Q 177.86 154.04 166.11 142.74
  C 164.35 141.04 162.28 138.45 159.97 136.57
  Q 156.59 133.81 155.16 132.26
  Q 146.10 122.49 136.15 113.63
  Q 135.74 113.27 136.16 112.92
  Q 139.30 110.27 141.50 106.73
  A 1.66 1.59 2.5 0 1 142.23 106.09
  C 146.14 104.37 147.23 100.91 150.09 98.38
  Q 153.79 95.11 153.84 95.05
  Q 162.84 86.01 171.93 77.06
  C 173.71 75.31 175.46 72.75 177.77 70.89
  Q 178.18 70.56 178.21 70.04
  Q 178.34 67.88 180.10 66.67
  Q 181.27 65.87 180.49 67.05
  Z
  M 227.11 77.53
  L 223.95 76.04
  A 0.24 0.24 0.0 0 0 223.69 76.44
  L 226.27 78.60
  Q 226.74 78.99 227.07 78.47
  L 227.29 78.13
  Q 227.54 77.73 227.11 77.53
  Z
  M 230.8025 81.6053
  A 0.84 0.45 46.1 0 0 230.5442 80.6880
  A 0.84 0.45 46.1 0 0 229.6375 80.3947
  A 0.84 0.45 46.1 0 0 229.8958 81.3120
  A 0.84 0.45 46.1 0 0 230.8025 81.6053
  Z
  M 203.18 88.49
  Q 208.21 89.26 209.02 93.81
  Q 209.17 94.64 208.67 97.07
  C 208.09 99.95 209.98 104.11 213.55 101.36
  Q 213.92 101.07 214.00 100.61
  C 214.83 95.51 213.83 88.41 208.74 85.73
  Q 203.72 83.09 197.85 83.80
  A 1.16 1.16 0.0 0 0 197.14 84.16
  Q 196.20 85.18 194.88 85.57
  Q 194.40 85.71 194.13 86.13
  C 189.50 93.41 190.95 98.82 193.56 107.08
  Q 194.43 109.85 197.43 117.25
  C 199.13 121.46 205.47 135.07 196.10 134.54
  Q 190.40 134.22 187.23 129.83
  C 185.48 127.39 185.00 123.23 183.25 120.13
  A 0.57 0.57 0.0 0 0 182.20 120.54
  Q 182.63 122.35 181.64 123.96
  A 1.44 1.40 60.1 0 0 181.42 124.82
  Q 182.27 137.77 193.59 141.67
  C 197.25 142.94 201.34 142.50 203.97 139.70
  C 207.75 135.68 206.47 127.04 204.66 122.26
  Q 200.52 111.35 197.87 102.78
  C 195.95 96.54 195.80 91.47 202.28 88.61
  Q 202.71 88.42 203.18 88.49
  Z
  M 58.90 193.35
  C 62.78 193.48 64.31 194.79 66.68 196.25
  Q 67.13 196.52 67.29 196.02
  C 68.88 191.05 56.26 191.68 54.18 192.38
  C 47.06 194.78 46.11 204.09 52.31 208.19
  Q 57.58 211.67 62.81 215.15
  C 69.30 219.48 67.41 228.20 59.75 229.43
  Q 53.52 230.43 48.51 226.54
  Q 48.03 226.17 48.02 226.78
  L 48.00 228.18
  A 0.66 0.65 17.1 0 0 48.31 228.75
  Q 55.57 233.19 62.66 230.45
  C 67.47 228.59 69.99 223.03 67.91 218.07
  C 66.36 214.38 59.47 210.62 53.19 206.58
  Q 49.82 204.42 49.97 200.63
  C 50.16 195.79 54.34 193.20 58.90 193.35
  Z
  M 155.78 211.52
  A 19.98 19.98 0.0 0 0 135.80 191.54
  A 19.98 19.98 0.0 0 0 115.82 211.52
  A 19.98 19.98 0.0 0 0 135.80 231.50
  A 19.98 19.98 0.0 0 0 155.78 211.52
  Z
  M 257.39 211.52
  A 19.98 19.98 0.0 0 0 237.41 191.54
  A 19.98 19.98 0.0 0 0 217.43 211.52
  A 19.98 19.98 0.0 0 0 237.41 231.50
  A 19.98 19.98 0.0 0 0 257.39 211.52
  Z
  M 299.57 210.34
  C 300.67 237.89 262.65 234.56 265.22 209.49
  C 266.71 195.05 281.79 189.68 293.80 196.18
  Q 294.54 196.58 294.48 195.75
  L 294.43 194.90
  A 1.00 0.99 -79.3 0 0 293.87 194.07
  C 278.23 186.52 260.30 197.48 263.72 215.60
  C 268.32 240.00 305.39 234.88 301.14 208.80
  Q 301.06 208.30 300.55 208.29
  C 294.94 208.14 288.78 208.71 283.27 208.10
  Q 282.06 207.96 281.83 208.96
  A 0.67 0.67 0.0 0 0 282.48 209.78
  L 298.98 209.77
  A 0.59 0.59 0.0 0 1 299.57 210.34
  Z
  M 79.00 210.22
  L 79.00 192.84
  A 0.58 0.58 0.0 0 0 78.58 192.28
  L 78.05 192.11
  A 0.63 0.62 -81.7 0 0 77.25 192.71
  L 77.25 230.15
  Q 77.25 230.80 77.90 230.78
  L 78.37 230.77
  Q 78.99 230.75 78.99 230.13
  L 79.00 212.73
  Q 79.00 212.21 79.52 212.21
  L 104.82 212.20
  Q 105.44 212.20 105.44 212.82
  L 105.45 230.34
  Q 105.45 231.00 106.10 230.90
  L 106.65 230.81
  Q 107.20 230.73 107.20 230.17
  Q 107.20 211.70 107.20 193.22
  Q 107.20 192.64 106.92 192.38
  Q 106.54 192.02 105.92 192.16
  A 0.61 0.61 0.0 0 0 105.45 192.75
  L 105.44 210.25
  A 0.44 0.44 0.0 0 1 105.00 210.69
  L 79.47 210.69
  Q 79.00 210.69 79.00 210.22
  Z
  M 196.08 229.26
  A 0.32 0.32 0.0 0 1 195.76 228.94
  L 195.74 192.14
  A 0.32 0.32 0.0 0 0 195.26 191.86
  L 194.15 192.51
  A 0.32 0.32 0.0 0 0 193.99 192.78
  L 193.94 230.43
  A 0.32 0.32 0.0 0 0 194.26 230.75
  L 213.28 230.81
  A 0.32 0.32 0.0 0 0 213.61 230.51
  L 213.65 229.55
  A 0.32 0.32 0.0 0 0 213.33 229.21
  L 196.08 229.26
  Z
  M 311.13 192.79
  A 0.67 0.67 0.0 0 0 310.46 192.12
  L 310.12 192.12
  A 0.67 0.67 0.0 0 0 309.45 192.79
  L 309.45 230.23
  A 0.67 0.67 0.0 0 0 310.12 230.90
  L 310.46 230.90
  A 0.67 0.67 0.0 0 0 311.13 230.23
  L 311.13 192.79
  Z
  M 333.05 213.28
  Q 339.06 221.75 344.90 230.33
  Q 345.63 231.41 346.92 230.77
  Q 347.37 230.55 347.08 230.13
  L 334.21 211.47
  Q 333.93 211.07 334.21 210.67
  L 346.46 192.94
  A 0.53 0.53 0.0 0 0 345.94 192.11
  L 345.07 192.25
  Q 344.60 192.32 344.33 192.71
  L 333.02 208.98
  A 0.43 0.43 0.0 0 1 332.31 208.98
  L 320.92 192.64
  Q 320.64 192.22 320.13 192.22
  L 319.25 192.21
  Q 318.33 192.20 318.85 192.96
  L 331.10 210.65
  Q 331.40 211.08 331.10 211.51
  L 318.32 230.02
  A 0.55 0.54 28.7 0 0 318.56 230.83
  C 319.48 231.20 320.38 230.52 320.91 229.71
  Q 326.36 221.31 332.33 213.27
  Q 332.70 212.77 333.05 213.28
  Z
  M 166.79 212.15
  Q 177.09 212.34 182.25 212.19
  Q 183.25 212.16 182.91 211.04
  Q 182.81 210.68 182.43 210.68
  L 166.71 210.70
  Q 166.22 210.70 166.22 210.21
  L 166.23 194.48
  Q 166.23 193.94 166.78 193.93
  Q 174.77 193.83 182.75 193.93
  Q 184.02 193.95 184.19 193.03
  A 0.70 0.70 0.0 0 0 183.50 192.20
  L 165.00 192.23
  Q 164.48 192.23 164.48 192.75
  L 164.48 230.27
  Q 164.48 230.81 165.02 230.81
  L 183.72 230.78
  A 0.51 0.51 0.0 0 0 184.22 230.15
  L 184.12 229.73
  Q 184.01 229.24 183.50 229.24
  L 166.73 229.24
  Q 166.22 229.24 166.22 228.73
  L 166.24 212.69
  Q 166.24 212.14 166.79 212.15
  Z"
/>
<path fill="#fc0000" d="
  M 180.10 66.67
  Q 178.34 67.88 178.21 70.04
  Q 178.18 70.56 177.77 70.89
  C 175.46 72.75 173.71 75.31 171.93 77.06
  Q 162.84 86.01 153.84 95.05
  Q 153.79 95.11 150.09 98.38
  C 147.23 100.91 146.14 104.37 142.23 106.09
  A 1.66 1.59 2.5 0 0 141.50 106.73
  Q 139.30 110.27 136.16 112.92
  Q 135.74 113.27 136.15 113.63
  Q 146.10 122.49 155.16 132.26
  Q 156.59 133.81 159.97 136.57
  C 162.28 138.45 164.35 141.04 166.11 142.74
  Q 177.86 154.04 188.91 166.05
  C 191.21 168.55 194.75 170.84 197.06 174.10
  Q 197.38 174.55 197.79 174.18
  C 200.03 172.16 202.09 171.23 203.92 168.62
  Q 206.12 165.48 209.61 163.69
  A 1.85 1.83 -87.2 0 0 210.33 163.03
  C 211.74 160.72 212.41 159.68 214.87 158.00
  C 216.93 156.58 217.75 154.40 219.60 152.87
  C 223.36 149.75 226.82 145.28 229.60 142.52
  Q 242.02 130.21 254.62 118.11
  Q 256.42 116.39 259.30 115.28
  A 0.47 0.46 11.8 0 1 259.80 116.04
  L 197.91 177.76
  Q 197.54 178.12 197.16 177.77
  Q 191.69 172.65 187.17 167.03
  C 185.51 164.97 183.39 164.58 181.62 162.69
  Q 166.11 146.18 149.62 130.66
  Q 146.48 127.71 142.14 122.59
  Q 138.21 117.96 133.76 113.98
  A 0.98 0.97 43.6 0 1 133.72 112.57
  C 136.09 110.17 139.16 105.97 142.16 104.87
  Q 142.63 104.70 142.63 104.20
  Q 142.63 102.58 143.39 101.90
  Q 161.39 85.65 177.78 67.80
  Q 178.37 67.16 183.38 62.45
  C 185.94 60.05 187.96 56.82 190.23 54.59
  Q 193.64 51.25 197.17 48.06
  Q 197.56 47.71 197.91 48.09
  Q 203.97 54.63 210.56 60.59
  C 212.98 62.77 214.23 65.80 216.83 67.53
  Q 220.12 69.73 222.35 73.08
  Q 222.60 73.46 222.20 73.23
  Q 219.54 71.70 217.92 69.16
  Q 217.62 68.70 217.10 68.50
  C 215.23 67.78 210.92 65.17 211.57 62.93
  A 0.76 0.75 24.8 0 0 211.25 62.08
  C 208.07 60.09 205.82 57.47 202.66 55.36
  Q 200.31 53.78 199.08 51.95
  Q 197.43 49.49 195.73 51.93
  L 192.19 57.05
  Q 191.85 57.54 191.25 57.53
  Q 188.79 57.48 187.44 59.52
  Q 187.09 60.05 187.67 60.31
  L 188.24 60.55
  Q 188.92 60.85 188.35 61.33
  L 182.10 66.57
  A 0.53 0.51 -14.4 0 0 181.93 66.84
  Q 181.28 69.29 179.04 70.35
  A 0.33 0.33 0.0 0 1 178.62 69.87
  L 180.49 67.05
  Q 181.27 65.87 180.10 66.67
  Z"
/>
<path fill="#fc0000" d="
  M 223.95 76.04
  L 227.11 77.53
  Q 227.54 77.73 227.29 78.13
  L 227.07 78.47
  Q 226.74 78.99 226.27 78.60
  L 223.69 76.44
  A 0.24 0.24 0.0 0 1 223.95 76.04
  Z"
/>
<ellipse fill="#fc0000" cx="0.00" cy="0.00" transform="translate(230.22,81.00) rotate(46.1)" rx="0.84" ry="0.45"/>
<path fill="#fc0000" d="
  M 202.28 88.61
  C 195.80 91.47 195.95 96.54 197.87 102.78
  Q 200.52 111.35 204.66 122.26
  C 206.47 127.04 207.75 135.68 203.97 139.70
  C 201.34 142.50 197.25 142.94 193.59 141.67
  Q 182.27 137.77 181.42 124.82
  A 1.44 1.40 60.1 0 1 181.64 123.96
  Q 182.63 122.35 182.20 120.54
  A 0.57 0.57 0.0 0 1 183.25 120.13
  C 185.00 123.23 185.48 127.39 187.23 129.83
  Q 190.40 134.22 196.10 134.54
  C 205.47 135.07 199.13 121.46 197.43 117.25
  Q 194.43 109.85 193.56 107.08
  C 190.95 98.82 189.50 93.41 194.13 86.13
  Q 194.40 85.71 194.88 85.57
  Q 196.20 85.18 197.14 84.16
  A 1.16 1.16 0.0 0 1 197.85 83.80
  Q 203.72 83.09 208.74 85.73
  C 213.83 88.41 214.83 95.51 214.00 100.61
  Q 213.92 101.07 213.55 101.36
  C 209.98 104.11 208.09 99.95 208.67 97.07
  Q 209.17 94.64 209.02 93.81
  Q 208.21 89.26 203.18 88.49
  Q 202.71 88.42 202.28 88.61
  Z"
/>
<path fill="#fc0000" d="
  M 66.68 196.25
  C 64.31 194.79 62.78 193.48 58.90 193.35
  C 54.34 193.20 50.16 195.79 49.97 200.63
  Q 49.82 204.42 53.19 206.58
  C 59.47 210.62 66.36 214.38 67.91 218.07
  C 69.99 223.03 67.47 228.59 62.66 230.45
  Q 55.57 233.19 48.31 228.75
  A 0.66 0.65 17.1 0 1 48.00 228.18
  L 48.02 226.78
  Q 48.03 226.17 48.51 226.54
  Q 53.52 230.43 59.75 229.43
  C 67.41 228.20 69.30 219.48 62.81 215.15
  Q 57.58 211.67 52.31 208.19
  C 46.11 204.09 47.06 194.78 54.18 192.38
  C 56.26 191.68 68.88 191.05 67.29 196.02
  Q 67.13 196.52 66.68 196.25
  Z"
/>
<path fill="#fc0000" d="
  M 155.78 211.52
  A 19.98 19.98 0.0 0 1 135.80 231.50
  A 19.98 19.98 0.0 0 1 115.82 211.52
  A 19.98 19.98 0.0 0 1 135.80 191.54
  A 19.98 19.98 0.0 0 1 155.78 211.52
  Z
  M 154.01 211.51
  A 18.20 18.20 0.0 0 0 135.81 193.31
  A 18.20 18.20 0.0 0 0 117.61 211.51
  A 18.20 18.20 0.0 0 0 135.81 229.71
  A 18.20 18.20 0.0 0 0 154.01 211.51
  Z"
/>
<path fill="#fc0000" d="
  M 257.39 211.52
  A 19.98 19.98 0.0 0 1 237.41 231.50
  A 19.98 19.98 0.0 0 1 217.43 211.52
  A 19.98 19.98 0.0 0 1 237.41 191.54
  A 19.98 19.98 0.0 0 1 257.39 211.52
  Z
  M 255.62 211.52
  A 18.21 18.21 0.0 0 0 237.41 193.31
  A 18.21 18.21 0.0 0 0 219.20 211.52
  A 18.21 18.21 0.0 0 0 237.41 229.73
  A 18.21 18.21 0.0 0 0 255.62 211.52
  Z"
/>
<path fill="#fc0000" d="
  M 298.98 209.77
  L 282.48 209.78
  A 0.67 0.67 0.0 0 1 281.83 208.96
  Q 282.06 207.96 283.27 208.10
  C 288.78 208.71 294.94 208.14 300.55 208.29
  Q 301.06 208.30 301.14 208.80
  C 305.39 234.88 268.32 240.00 263.72 215.60
  C 260.30 197.48 278.23 186.52 293.87 194.07
  A 1.00 0.99 -79.3 0 1 294.43 194.90
  L 294.48 195.75
  Q 294.54 196.58 293.80 196.18
  C 281.79 189.68 266.71 195.05 265.22 209.49
  C 262.65 234.56 300.67 237.89 299.57 210.34
  A 0.59 0.59 0.0 0 0 298.98 209.77
  Z"
/>
<path fill="#fc0000" d="
  M 79.47 210.69
  L 105.00 210.69
  A 0.44 0.44 0.0 0 0 105.44 210.25
  L 105.45 192.75
  A 0.61 0.61 0.0 0 1 105.92 192.16
  Q 106.54 192.02 106.92 192.38
  Q 107.20 192.64 107.20 193.22
  Q 107.20 211.70 107.20 230.17
  Q 107.20 230.73 106.65 230.81
  L 106.10 230.90
  Q 105.45 231.00 105.45 230.34
  L 105.44 212.82
  Q 105.44 212.20 104.82 212.20
  L 79.52 212.21
  Q 79.00 212.21 79.00 212.73
  L 78.99 230.13
  Q 78.99 230.75 78.37 230.77
  L 77.90 230.78
  Q 77.25 230.80 77.25 230.15
  L 77.25 192.71
  A 0.63 0.62 -81.7 0 1 78.05 192.11
  L 78.58 192.28
  A 0.58 0.58 0.0 0 1 79.00 192.84
  L 79.00 210.22
  Q 79.00 210.69 79.47 210.69
  Z"
/>
<path fill="#fc0000" d="
  M 196.08 229.26
  L 213.33 229.21
  A 0.32 0.32 0.0 0 1 213.65 229.55
  L 213.61 230.51
  A 0.32 0.32 0.0 0 1 213.28 230.81
  L 194.26 230.75
  A 0.32 0.32 0.0 0 1 193.94 230.43
  L 193.99 192.78
  A 0.32 0.32 0.0 0 1 194.15 192.51
  L 195.26 191.86
  A 0.32 0.32 0.0 0 1 195.74 192.14
  L 195.76 228.94
  A 0.32 0.32 0.0 0 0 196.08 229.26
  Z"
/>
<rect fill="#fc0000" x="309.45" y="192.12" width="1.68" height="38.78" rx="0.67"/>
<path fill="#fc0000" d="
  M 332.33 213.27
  Q 326.36 221.31 320.91 229.71
  C 320.38 230.52 319.48 231.20 318.56 230.83
  A 0.55 0.54 28.7 0 1 318.32 230.02
  L 331.10 211.51
  Q 331.40 211.08 331.10 210.65
  L 318.85 192.96
  Q 318.33 192.20 319.25 192.21
  L 320.13 192.22
  Q 320.64 192.22 320.92 192.64
  L 332.31 208.98
  A 0.43 0.43 0.0 0 0 333.02 208.98
  L 344.33 192.71
  Q 344.60 192.32 345.07 192.25
  L 345.94 192.11
  A 0.53 0.53 0.0 0 1 346.46 192.94
  L 334.21 210.67
  Q 333.93 211.07 334.21 211.47
  L 347.08 230.13
  Q 347.37 230.55 346.92 230.77
  Q 345.63 231.41 344.90 230.33
  Q 339.06 221.75 333.05 213.28
  Q 332.70 212.77 332.33 213.27
  Z"
/>
<path fill="#fc0000" d="
  M 166.24 212.69
  L 166.22 228.73
  Q 166.22 229.24 166.73 229.24
  L 183.50 229.24
  Q 184.01 229.24 184.12 229.73
  L 184.22 230.15
  A 0.51 0.51 0.0 0 1 183.72 230.78
  L 165.02 230.81
  Q 164.48 230.81 164.48 230.27
  L 164.48 192.75
  Q 164.48 192.23 165.00 192.23
  L 183.50 192.20
  A 0.70 0.70 0.0 0 1 184.19 193.03
  Q 184.02 193.95 182.75 193.93
  Q 174.77 193.83 166.78 193.93
  Q 166.23 193.94 166.23 194.48
  L 166.22 210.21
  Q 166.22 210.70 166.71 210.70
  L 182.43 210.68
  Q 182.81 210.68 182.91 211.04
  Q 183.25 212.16 182.25 212.19
  Q 177.09 212.34 166.79 212.15
  Q 166.24 212.14 166.24 212.69
  Z"
/>
<circle fill="#ffffff" cx="135.81" cy="211.51" r="18.20"/>
<circle fill="#ffffff" cx="237.41" cy="211.52" r="18.21"/>
</svg>
